<?xml version="1.0" encoding="UTF-8"?>
<svg width="126px" height="72px" viewBox="0 0 126 72" version="1.1" xmlns="http://www.w3.org/2000/svg" xmlns:xlink="http://www.w3.org/1999/xlink">
    <!-- Generator: Sketch 50.2 (55047) - http://www.bohemiancoding.com/sketch -->
    <title>logo-color-insight</title>
    <desc>Created with Sketch.</desc>
    <defs></defs>
    <g id="logo-color-insight" stroke="none" stroke-width="1" fill="none" fill-rule="evenodd">
        <g id="insightlogo(black)outlined" transform="translate(0.000000, 14.000000)">
            <polygon id="Fill-1" fill="#2D2F2C" points="13.300705 34.4490909 15.5578273 34.4490909 15.5578273 16.2581818 13.300705 16.2581818"></polygon>
            <polyline id="Fill-2" fill="#2D2F2C" points="32.6358129 34.4490909 22.0581583 19.94 22.0581583 34.4490909 19.8001295 34.4490909 19.8001295 16.2581818 22.1125468 16.2581818 32.5551367 30.4672727 32.5551367 16.2581818 34.8113525 16.2581818 34.8113525 34.4490909 32.6358129 34.4490909"></polyline>
            <path d="M44.9276115,34.7763636 C43.3322158,34.7763636 41.9634388,34.5072727 40.8212806,33.9709091 C39.6791223,33.4354545 38.7273237,32.74 37.9658849,31.8854545 L39.2984029,30.1672727 C39.5884748,30.4936364 39.9329353,30.8172727 40.3317842,31.1354545 C40.7306331,31.4536364 41.1702734,31.7309091 41.650705,31.9672727 C42.1311367,32.2036364 42.6523597,32.3945455 43.2143741,32.5390909 C43.7763885,32.6854545 44.3746619,32.7581818 45.0091942,32.7581818 C45.8250216,32.7581818 46.5048777,32.6581818 47.0487626,32.4581818 C47.5926475,32.2581818 48.0277554,32.0072727 48.3540863,31.7081818 C48.6804173,31.4072727 48.9161007,31.0718182 49.0611367,30.6990909 C49.2061727,30.3263636 49.2786906,29.9672727 49.2786906,29.6209091 C49.2786906,29.04 49.1245899,28.5581818 48.8163885,28.1763636 C48.5081871,27.7945455 48.1048058,27.4718182 47.6062446,27.2081818 C47.1076835,26.9445455 46.5366043,26.7263636 45.8930072,26.5527273 C45.2494101,26.3809091 44.5876835,26.1981818 43.9078273,26.0072727 C43.2279712,25.8163636 42.5662446,25.6036364 41.9226475,25.3663636 C41.2790504,25.1309091 40.7079712,24.8263636 40.2094101,24.4527273 C39.7108489,24.0809091 39.3074676,23.6209091 38.9992662,23.0763636 C38.6910647,22.5309091 38.536964,21.8490909 38.536964,21.0309091 C38.536964,20.2845455 38.6955971,19.6027273 39.0128633,18.9854545 C39.3301295,18.3672727 39.7652374,17.8354545 40.3181871,17.3890909 C40.8711367,16.9445455 41.5283309,16.5990909 42.2897698,16.3536364 C43.0512086,16.1081818 43.8761007,15.9845455 44.764446,15.9845455 C46.1604173,15.9845455 47.393223,16.2036364 48.4628633,16.64 C49.5325036,17.0763636 50.4480432,17.7036364 51.209482,18.5218182 L49.8497698,20.1854545 C49.1608489,19.4218182 48.3631511,18.8672727 47.4566763,18.5218182 C46.5502014,18.1763636 45.5984029,18.0036364 44.6012806,18.0036364 C43.5135108,18.0036364 42.6206331,18.2672727 41.9226475,18.7936364 C41.2246619,19.3218182 40.8756691,20.0209091 40.8756691,20.8936364 C40.8756691,21.4036364 41.0297698,21.8209091 41.3379712,22.1490909 C41.6461727,22.4763636 42.049554,22.7581818 42.5481151,22.9945455 C43.0466763,23.2309091 43.6177554,23.4354545 44.2613525,23.6081818 C44.9049496,23.7809091 45.5666763,23.9618182 46.2465324,24.1527273 C46.9263885,24.3436364 47.5881151,24.5672727 48.2317122,24.8218182 C48.8753094,25.0763636 49.4463885,25.4036364 49.9449496,25.8036364 C50.4435108,26.2036364 50.8468921,26.6945455 51.1550935,27.2754545 C51.463295,27.8581818 51.6173957,28.5763636 51.6173957,29.4309091 C51.6173957,30.0854545 51.499554,30.7354545 51.2638705,31.3809091 C51.0281871,32.0263636 50.6429353,32.5990909 50.1081151,33.0990909 C49.573295,33.5990909 48.8798417,34.0027273 48.0277554,34.3118182 C47.1756691,34.6209091 46.1422878,34.7763636 44.9276115,34.7763636" id="Fill-3" fill="#2D2F2C"></path>
            <polygon id="Fill-4" fill="#2D2F2C" points="54.989482 34.4490909 57.2466043 34.4490909 57.2466043 16.2581818 54.989482 16.2581818"></polygon>
            <path d="M70.0822878,34.8027273 C68.7950935,34.8027273 67.5849496,34.5754545 66.4527626,34.1209091 C65.3187626,33.6672727 64.330705,33.0263636 63.4876835,32.1981818 C62.6446619,31.3718182 61.9784029,30.3809091 61.4889065,29.2254545 C60.9994101,28.0718182 60.7546619,26.7845455 60.7546619,25.3663636 C60.7546619,23.9490909 60.9994101,22.6627273 61.4889065,21.5081818 C61.9784029,20.3536364 62.6446619,19.3672727 63.4876835,18.5481818 C64.330705,17.73 65.3187626,17.0945455 66.4527626,16.64 C67.5849496,16.1854545 68.7950935,15.9581818 70.0822878,15.9581818 C71.6958129,15.9581818 73.0691223,16.2763636 74.2022158,16.9127273 C75.3344029,17.5490909 76.3106763,18.3672727 77.1255971,19.3672727 L75.3316835,20.4854545 C74.7506331,19.74 74.0027914,19.1345455 73.0872518,18.6718182 C72.1717122,18.2072727 71.1700576,17.9754545 70.0822878,17.9754545 C69.0851655,17.9754545 68.1605612,18.1581818 67.3084748,18.5218182 C66.455482,18.8854545 65.7176115,19.3936364 65.0930504,20.0490909 C64.4666763,20.7027273 63.9771799,21.48 63.6236547,22.3809091 C63.2701295,23.28 63.0942734,24.2763636 63.0942734,25.3663636 C63.0942734,26.44 63.2701295,27.4309091 63.6236547,28.3390909 C63.9771799,29.2490909 64.4666763,30.0309091 65.0930504,30.6854545 C65.7176115,31.34 66.455482,31.8536364 67.3084748,32.2263636 C68.1605612,32.5990909 69.0851655,32.7845455 70.0822878,32.7845455 C70.6261727,32.7845455 71.1428633,32.7263636 71.6323597,32.6081818 C72.1218561,32.49 72.5741871,32.3345455 72.9920719,32.1436364 C73.4090504,31.9536364 73.7843309,31.74 74.1215396,31.5027273 C74.4560288,31.2672727 74.7325036,31.04 74.950964,30.8209091 L74.950964,27.1127273 L68.7225755,27.1127273 L68.7225755,25.0945455 L77.2071799,25.0945455 L77.2071799,31.6663636 C76.3541871,32.6127273 75.3262446,33.3709091 74.1215396,33.9445455 C72.9141151,34.5172727 71.5689065,34.8027273 70.0822878,34.8027273" id="Fill-5" fill="#2D2F2C"></path>
            <polyline id="Fill-6" fill="#2D2F2C" points="93.7412806 34.4490909 93.7412806 26.1027273 83.1355252 26.1027273 83.1355252 34.4490909 80.8784029 34.4490909 80.8784029 16.2581818 83.1355252 16.2581818 83.1355252 24.0854545 93.7412806 24.0854545 93.7412806 16.2581818 95.9974964 16.2581818 95.9974964 34.4490909 93.7412806 34.4490909"></polyline>
            <polyline id="Fill-7" fill="#2D2F2C" points="104.726849 34.4490909 104.726849 18.2763636 98.9888633 18.2763636 98.9888633 16.2581818 112.749151 16.2581818 112.749151 18.2763636 106.983971 18.2763636 106.983971 34.4490909 104.726849 34.4490909"></polyline>
            <polygon id="Fill-8" fill="#2D2F2C" points="0 5.96363636 5.43884892 5.96363636 5.43884892 0.509090909 0 0.509090909"></polygon>
            <polygon id="Fill-9" fill="#666964" points="0 11.3227273 5.43884892 11.3227273 5.43884892 5.86818182 0 5.86818182"></polygon>
            <g id="Group-15" transform="translate(5.438849, 0.000000)">
                <polygon id="Fill-10" fill="#8B8E88" points="0 5.96363636 5.43884892 5.96363636 5.43884892 0.509090909 0 0.509090909"></polygon>
                <polygon id="Fill-12" fill="#2D2F2C" points="115.121396 49.9045455 120.524892 49.9045455 120.524892 44.45 115.121396 44.45"></polygon>
                <polygon id="Fill-13" fill="#666964" points="109.682547 49.9454545 115.121396 49.9454545 115.121396 44.5454545 109.682547 44.5454545"></polygon>
                <polygon id="Fill-14" fill="#8B8E88" points="115.121396 44.45 120.524892 44.45 120.524892 38.9954545 115.121396 38.9954545"></polygon>
            </g>
        </g>
    </g>
</svg>